<svg xmlns="http://www.w3.org/2000/svg"><symbol id="calendar" viewBox="0 0 24 24"><path d="M20 3h-1V1h-2v2H7V1H5v2H4a2 2 0 0 0-2 2v16a2 2 0 0 0 2 2h16a2 2 0 0 0 2-2V5a2 2 0 0 0-2-2zm0 18H4V10h16zm0-13H4V5h16z"/></symbol><symbol id="home" viewBox="0 0 24 24"><path d="M12 5.69l5 4.5V18h-2v-6H9v6H7v-7.81l5-4.5M12 3L2 12h3v8h6v-6h2v6h6v-8h3z"/></symbol><symbol id="menu" viewBox="0 0 24 24"><path d="M3 6h18v2H3zm0 5h18v2H3zm0 5h18v2H3z"/></symbol><symbol id="more-menu" viewBox="0 0 12 24"><path fill-rule="evenodd" d="M6 8a2 2 0 1 0-2-2 2 2 0 0 0 2 2zm0 2a2 2 0 1 0 2 2 2 2 0 0 0-2-2zm0 6a2 2 0 1 0 2 2 2 2 0 0 0-2-2z"/></symbol><symbol id="search" viewBox="0 0 24 24"><path d="M15.75 14.25H15l-.3-.3a6.25 6.25 0 0 0 1.6-4.2 6.5 6.5 0 1 0-6.5 6.5 6.25 6.25 0 0 0 4.2-1.6l.3.3v.8l5 5 1.5-1.5zm-6 0a4.5 4.5 0 1 1 4.5-4.5 4.49 4.49 0 0 1-4.46 4.5z"/></symbol><symbol id="profile" viewBox="0 0 24 24"><path d="M12 6a2 2 0 1 1-2 2 2 2 0 0 1 2-2m0 9c2.7 0 5.8 1.29 6 2v1H6v-1c.2-.72 3.3-2 6-2m0-11a4 4 0 1 0 4 4 4 4 0 0 0-4-4zm0 9c-2.67 0-8 1.34-8 4v3h16v-3c0-2.66-5.33-4-8-4z"/></symbol><symbol id="settings" viewBox="0 0 24 24"><path d="M19.43 13a7.79 7.79 0 0 0 .07-1 7.79 7.79 0 0 0-.07-1l2.11-1.65a.5.5 0 0 0 .12-.64l-2-3.46a.5.5 0 0 0-.44-.25.47.47 0 0 0-.17 0l-2.49 1a7.31 7.31 0 0 0-1.69-1l-.38-2.65A.49.49 0 0 0 14 2h-4a.49.49 0 0 0-.49.42l-.38 2.65a7.68 7.68 0 0 0-1.69 1L5 5.05 4.77 5a.5.5 0 0 0-.43.25l-2 3.46a.49.49 0 0 0 .12.64L4.57 11a7.93 7.93 0 0 0-.07 1 7.93 7.93 0 0 0 .07 1l-2.11 1.63a.5.5 0 0 0-.12.64l2 3.46a.5.5 0 0 0 .44.25A.47.47 0 0 0 5 19l2.49-1a7.31 7.31 0 0 0 1.69 1l.38 2.65A.49.49 0 0 0 10 22h4a.49.49 0 0 0 .49-.42l.38-2.65a7.68 7.68 0 0 0 1.69-1l2.49 1a.57.57 0 0 0 .18 0 .5.5 0 0 0 .43-.25l2-3.46a.5.5 0 0 0-.12-.64zm-2-1.71a5.34 5.34 0 0 1 .05.73c0 .21 0 .43-.05.73l-.14 1.13.89.7 1.08.84-.7 1.21-1.27-.51-1-.42-.9.68a5.86 5.86 0 0 1-1.25.73l-1.06.43-.16 1.13L12.7 20h-1.4l-.19-1.35-.11-1.13-1.06-.43a5.67 5.67 0 0 1-1.23-.71l-.91-.7-1.06.43-1.27.51-.7-1.21 1.08-.84.89-.7-.14-1.13v-1.47l.14-1.13-.89-.7-1.13-.84.7-1.21 1.27.51 1 .42.9-.68a5.86 5.86 0 0 1 1.25-.73l1.06-.43.16-1.13L11.3 4h1.39l.19 1.35.12 1.13 1.06.43a5.67 5.67 0 0 1 1.23.71l.91.7 1.06-.43 1.27-.51.7 1.21-1.07.85-.89.7zM12 8a4 4 0 1 0 4 4 4 4 0 0 0-4-4zm0 6a2 2 0 1 1 2-2 2 2 0 0 1-2 2z"/></symbol><symbol id="plus" viewBox="0 0 24 24"><path d="M19 13h-6v6h-2v-6H5v-2h6V5h2v6h6z"/></symbol></svg>